#N canvas 72 23 1408 836 12;
#X obj 286 496 tgl 15 0 empty empty empty 17 7 0 10 -262144 -1 -1 0
1;
#X obj 311 374 change;
#X obj 311 349 > 40;
#X obj 308 204 vsl 15 128 0 127 0 0 empty empty empty 0 -9 0 10 -262144
-1 -1 6087 1;
#X obj 330 204 vsl 15 128 0 127 0 1 empty empty go_threshold 0 -9 0
10 -262144 -1 -1 8620 1;
#X obj 52 26 adc~ 1 2;
#X obj 60 619 moses 1;
#X floatatom 305 126 5 0 0 0 - - -;
#X obj 179 253 f;
#X obj 168 199 metro 200;
#X obj 183 293 print volume;
#X obj 175 174 bng 15 250 50 0 empty empty empty 17 7 0 10 -262144
-1 -1;
#X obj 507 172 tabread pwm_output;
#X obj 35 818 s note_raw;
#X obj 280 529 ctlout 62;
#X obj 655 116 + 20;
#X obj 655 145 % 128;
#X obj 656 175 tabread pwm_output;
#X obj 653 355 ctlout 61;
#X obj 528 283 line;
#X obj 522 227 pack 0 0;
#X msg 525 262 \$1 \$2;
#X obj 573 199 r slide;
#X obj 656 296 line;
#X obj 655 234 pack 0 0;
#X msg 658 269 \$1 \$2;
#X obj 700 206 r slide;
#X obj 529 25 nbx 5 20 0 500 0 1 slide slide_rcv dance_slide 0 -8 0
10 -262144 -1 -1 10 256;
#X floatatom 654 322 5 0 0 0 - - -;
#X floatatom 529 312 5 0 0 0 - - -;
#N canvas 433 341 971 486 random_array 0;
#X obj 70 118 until;
#X msg 67 82 127;
#X obj 95 156 t b b;
#X obj 86 195 + 1;
#X floatatom 86 224 5 0 0 0 - - -;
#X msg 58 165 1;
#X msg 166 144 0;
#X obj 128 15 loadbang;
#X obj 128 44 t b b;
#X obj 98 16 bng 15 250 50 0 empty empty empty 17 7 0 10 -262144 -1
-1;
#X obj 65 276 tabwrite pwm_output;
#X obj 170 192 random 128;
#N canvas 0 22 450 278 (subpatch) 0;
#X array pwm_output 127 float 3;
#A 0 95 71 97 61 71 92 24 91 115 1 11 112 53 106 73 63 25 47 47 7 41
35 97 40 38 53 76 60 72 82 35 52 124 58 93 124 33 104 49 18 73 105
25 41 114 60 73 70 72 49 52 92 98 71 4 107 0 7 30 31 72 104 26 109
5 37 69 50 102 34 30 80 56 70 82 75 42 93 62 105 5 110 107 81 111 36
9 37 37 35 114 35 61 105 37 66 95 47 70 82 7 65 25 21 68 98 3 100 112
37 6 71 115 79 64 22 2 51 106 22 89 16 82 22 121 110 96;
#X coords 0 0 127 127 200 140 1 0 0;
#X restore 306 50 graph;
#X connect 0 0 2 0;
#X connect 1 0 0 0;
#X connect 2 0 5 0;
#X connect 2 1 11 0;
#X connect 3 0 4 0;
#X connect 4 0 3 1;
#X connect 4 0 10 1;
#X connect 5 0 3 0;
#X connect 6 0 4 0;
#X connect 7 0 8 0;
#X connect 8 0 1 0;
#X connect 8 1 6 0;
#X connect 9 0 8 0;
#X connect 11 0 10 0;
#X restore 787 27 pd random_array;
#X text 727 353 right;
#X text 601 350 left;
#X obj 529 351 ctlout 60;
#X obj 511 53 r note_raw_dance;
#X obj 44 532 nbx 5 50 -1e+37 1e+37 0 0 empty empty empty 0 -8 0 40
-262144 -1 -1 64.6512 256;
#X obj 37 725 spigot;
#X obj 163 726 - 1;
#X obj 163 750 abs;
#X obj 125 779 spigot;
#X obj 127 818 s note_raw_dance;
#X obj 312 670 tgl 15 0 empty empty empty 17 7 0 10 -262144 -1 -1 1
1;
#X obj 303 599 loadbang;
#X obj 916 525 ctlout 61;
#X floatatom 914 487 5 0 0 0 - - -;
#X floatatom 831 483 5 0 0 0 - - -;
#X obj 829 527 ctlout 60;
#X obj 859 182 r note_raw;
#X obj 294 704 sel 0 1;
#X obj 256 822 print dance_mode;
#X obj 387 820 print control_mode;
#X obj 840 353 sel 0 1 2 3;
#N canvas 988 87 420 346 flashcheck 0;
#X obj 95 290 ctlout 72;
#X obj 101 206 tgl 15 0 empty empty empty 17 7 0 10 -262144 -1 -1 0
1;
#X obj 109 117 loadbang;
#X obj 71 137 bng 15 250 50 0 empty empty empty 17 7 0 10 -262144 -1
-1;
#X obj 92 177 metro 1000;
#X msg 180 140 2000;
#X msg 222 137 200;
#X obj 257 88 receive dance;
#X obj 183 63 receive control;
#X connect 1 0 0 0;
#X connect 2 0 4 0;
#X connect 3 0 4 0;
#X connect 4 0 1 0;
#X connect 5 0 4 1;
#X connect 6 0 4 1;
#X connect 7 0 6 0;
#X connect 8 0 5 0;
#X restore 774 64 pd flashcheck;
#X obj 383 739 change;
#X obj 383 763 t b;
#X obj 385 793 s stop_all;
#X obj 424 411 r stop_all;
#X msg 424 435 0;
#X obj 408 22 ctlin 50;
#X obj 411 47 * 0.8;
#X obj 380 574 ctlin 60;
#X obj 380 598 / 127;
#X obj 380 622 i;
#X msg 837 424 100;
#X msg 875 423 100;
#X msg 917 422 20;
#X msg 961 422 20;
#X obj 868 215 % 12;
#X floatatom 869 294 5 0 0 0 - - -;
#X msg 276 61 minpower \$1;
#N canvas 0 23 832 684 startup_check 0;
#X obj 53 213 tgl 15 0 empty empty empty 17 7 0 10 -262144 -1 -1 0
1;
#X obj 47 246 ctlout 62;
#X obj 480 218 ctlout 61;
#X floatatom 481 185 5 0 0 0 - - -;
#X floatatom 324 172 5 0 0 0 - - -;
#X obj 178 26 loadbang;
#X msg 221 114 40;
#X obj 183 76 t b b b b;
#X msg 181 125 1;
#X obj 123 108 delay 200;
#X msg 123 132 0;
#X obj 177 57 bng 15 250 50 0 empty empty empty 17 7 0 10 -262144 -1
-1;
#X text 554 216 right;
#X text 396 210 left;
#X msg 267 115 40;
#X obj 324 211 ctlout 60;
#X text 211 53 startup check;
#X connect 0 0 1 0;
#X connect 3 0 2 0;
#X connect 4 0 15 0;
#X connect 5 0 11 0;
#X connect 6 0 4 0;
#X connect 7 0 9 0;
#X connect 7 1 8 0;
#X connect 7 2 6 0;
#X connect 7 3 14 0;
#X connect 8 0 0 0;
#X connect 9 0 10 0;
#X connect 10 0 0 0;
#X connect 11 0 7 0;
#X connect 14 0 3 0;
#X restore 773 93 pd startup_check;
#X text 355 528 start/stop motors;
#X obj 872 329 print;
#X obj 298 399 sel 0 1;
#X msg 289 454 0;
#X obj 211 432 t b b;
#X msg 236 460 1;
#X obj 229 759 send dance;
#X obj 316 760 send control;
#X obj 58 431 spigot;
#X obj 869 266 i;
#X obj 869 242 / 3;
#X obj 96 92 sigmund~ -minpower 22 -stabletime 30 notes env;
#X msg 303 623 1;
#X connect 0 0 14 0;
#X connect 0 0 79 1;
#X connect 1 0 73 0;
#X connect 2 0 1 0;
#X connect 3 0 2 0;
#X connect 4 0 2 1;
#X connect 5 0 82 0;
#X connect 5 1 82 0;
#X connect 6 1 36 0;
#X connect 6 1 39 0;
#X connect 7 0 8 1;
#X connect 7 0 3 0;
#X connect 8 0 10 0;
#X connect 9 0 8 0;
#X connect 11 0 9 0;
#X connect 12 0 20 0;
#X connect 15 0 16 0;
#X connect 16 0 17 0;
#X connect 17 0 24 0;
#X connect 19 0 29 0;
#X connect 20 0 21 0;
#X connect 21 0 19 0;
#X connect 22 0 20 1;
#X connect 23 0 28 0;
#X connect 24 0 25 0;
#X connect 25 0 23 0;
#X connect 26 0 24 1;
#X connect 28 0 18 0;
#X connect 29 0 33 0;
#X connect 34 0 12 0;
#X connect 34 0 15 0;
#X connect 35 0 6 0;
#X connect 36 0 13 0;
#X connect 37 0 38 0;
#X connect 38 0 39 1;
#X connect 39 0 40 0;
#X connect 41 0 48 0;
#X connect 41 0 53 0;
#X connect 41 0 37 0;
#X connect 41 0 36 1;
#X connect 42 0 83 0;
#X connect 44 0 43 0;
#X connect 45 0 46 0;
#X connect 47 0 67 0;
#X connect 48 0 49 0;
#X connect 48 0 77 0;
#X connect 48 1 50 0;
#X connect 48 1 78 0;
#X connect 51 0 63 0;
#X connect 51 0 64 0;
#X connect 51 1 63 0;
#X connect 51 1 66 0;
#X connect 51 2 64 0;
#X connect 51 2 65 0;
#X connect 51 3 65 0;
#X connect 51 3 66 0;
#X connect 53 0 54 0;
#X connect 54 0 55 0;
#X connect 56 0 57 0;
#X connect 57 0 0 0;
#X connect 58 0 59 0;
#X connect 59 0 69 0;
#X connect 59 0 4 0;
#X connect 60 0 61 0;
#X connect 61 0 62 0;
#X connect 62 0 41 0;
#X connect 63 0 45 0;
#X connect 64 0 44 0;
#X connect 65 0 45 0;
#X connect 66 0 44 0;
#X connect 67 0 81 0;
#X connect 68 0 51 0;
#X connect 68 0 72 0;
#X connect 73 0 74 0;
#X connect 73 1 75 0;
#X connect 74 0 0 0;
#X connect 75 0 76 0;
#X connect 75 1 35 0;
#X connect 76 0 0 0;
#X connect 79 0 35 0;
#X connect 80 0 68 0;
#X connect 81 0 80 0;
#X connect 82 0 79 0;
#X connect 82 1 7 0;
#X connect 83 0 41 0;
