#N canvas 714 23 435 428 16;
#X msg 5 72 devices;
#X msg 21 108 close;
#X msg 111 49 open 2;
#X obj 10 34 loadbang;
#X msg 112 21 open 1;
#X msg 122 83 open 3;
#X obj 196 214 print;
#X obj 44 179 comport 3 9600;
#X obj 114 138 r toComport;
#X obj 245 16 adc~;
#X obj 247 49 env~ 128;
#X obj 252 77 - 100;
#X obj 251 113 s input_meter;
#X obj 53 238 vu 15 120 input_meter input -1 -8 0 10 -66577 -1 1 0
;
#X connect 0 0 7 0;
#X connect 1 0 7 0;
#X connect 2 0 7 0;
#X connect 3 0 0 0;
#X connect 4 0 7 0;
#X connect 5 0 7 0;
#X connect 7 1 6 0;
#X connect 8 0 7 0;
#X connect 9 0 10 0;
#X connect 10 0 11 0;
#X connect 11 0 12 0;
