#N canvas 715 23 335 400 12;
#X msg 28 71 devices;
#X msg 157 90 close;
#X msg 100 68 open 2;
#X obj 33 33 loadbang;
#X msg 101 40 open 1;
#X msg 111 102 open 3;
#X obj 196 214 print;
#X obj 44 179 comport 3 9600;
#X obj 119 150 r toComport;
#X connect 0 0 7 0;
#X connect 1 0 7 0;
#X connect 2 0 7 0;
#X connect 3 0 0 0;
#X connect 4 0 7 0;
#X connect 5 0 7 0;
#X connect 7 1 6 0;
#X connect 8 0 7 0;
