#N canvas 408 61 740 415 12;
#X obj 71 38 loadbang;
#X obj 71 86 s bela_setDigital;
#X msg 71 62 out 12 \, out 13 \, out 14 \, out 15;
#X obj 413 253 s bela_digitalOut14;
#X obj 561 254 s bela_digitalOut15;
#X obj 122 190 r forward;
#X obj 267 184 r reverse;
#X obj 409 184 r left;
#X obj 574 184 r right;
#X obj 217 135 r forward_left;
#X obj 502 133 r forward_right;
#X obj 377 135 r reverse_left;
#X obj 620 134 r reverse_right;
#X obj 52 278 print bela_forward;
#X obj 468 353 print;
#X obj 379 57 r stop_all;
#X msg 379 81 0;
#X obj 125 252 s bela_digitalOut13;
#X obj 271 252 s bela_digitalOut12;
#X connect 0 0 2 0;
#X connect 2 0 1 0;
#X connect 5 0 13 0;
#X connect 5 0 14 0;
#X connect 5 0 17 0;
#X connect 6 0 18 0;
#X connect 7 0 3 0;
#X connect 8 0 4 0;
#X connect 9 0 3 0;
#X connect 9 0 14 0;
#X connect 9 0 17 0;
#X connect 10 0 4 0;
#X connect 10 0 14 0;
#X connect 10 0 17 0;
#X connect 11 0 3 0;
#X connect 11 0 18 0;
#X connect 12 0 4 0;
#X connect 12 0 18 0;
#X connect 15 0 16 0;
#X connect 16 0 3 0;
#X connect 16 0 4 0;
#X connect 16 0 17 0;
#X connect 16 0 18 0;
