#N canvas 95 111 1236 697 16;
#X obj 581 213 sel 1 0;
#X obj 585 180 tgl 15 0 empty empty test_led 17 7 0 10 -262144 -1 -1
0 1;
#X msg 567 248 18;
#X msg 622 248 19;
#X obj 608 283 s toComport;
#X obj 261 389 sel 1 0;
#X obj 264 357 tgl 25 0 empty empty back 17 7 0 10 -262144 -1 -1 0
1;
#X obj 277 466 s toComport;
#X msg 259 423 10;
#X msg 315 426 11;
#X obj 248 191 sel 1 0;
#X obj 247 150 tgl 25 0 empty empty forth 17 7 0 10 -262144 -1 -1 0
1;
#X obj 273 276 s toComport;
#X msg 246 227 12;
#X msg 293 228 13;
#X obj 106 221 sel 1 0;
#X obj 102 188 tgl 25 0 empty empty right 17 7 0 10 -262144 -1 -1 0
1;
#X obj 135 302 s toComport;
#X msg 109 255 14;
#X msg 161 257 15;
#X obj 395 240 sel 1 0;
#X obj 393 209 tgl 25 0 empty empty left 17 7 0 10 -262144 -1 -1 0
1;
#X obj 393 305 s toComport;
#X msg 395 273 16;
#X msg 444 267 17, f 4;
#X obj 101 155 keytoggle 97;
#X obj 239 112 keytoggle 119;
#X obj 392 162 keytoggle 100;
#X obj 260 327 keytoggle 115;
#X obj 7 605;
#X connect 0 0 2 0;
#X connect 0 1 3 0;
#X connect 1 0 0 0;
#X connect 2 0 4 0;
#X connect 3 0 4 0;
#X connect 5 0 8 0;
#X connect 5 1 9 0;
#X connect 6 0 5 0;
#X connect 8 0 7 0;
#X connect 9 0 7 0;
#X connect 10 0 13 0;
#X connect 10 1 14 0;
#X connect 11 0 10 0;
#X connect 13 0 12 0;
#X connect 14 0 12 0;
#X connect 15 0 18 0;
#X connect 15 1 19 0;
#X connect 16 0 15 0;
#X connect 18 0 17 0;
#X connect 19 0 17 0;
#X connect 20 0 23 0;
#X connect 20 1 24 0;
#X connect 21 0 20 0;
#X connect 23 0 22 0;
#X connect 24 0 22 0;
#X connect 25 0 16 0;
#X connect 26 0 11 0;
#X connect 27 0 21 0;
#X connect 28 0 6 0;
