#N canvas 198 399 751 431 12;
#X obj 70 105 bng 15 250 50 0 empty empty empty 17 7 0 10 -262144 -1
-1;
#X obj 136 106 delay 100;
#X msg 78 131 1;
#X msg 135 139 0;
#X obj 187 75 r pulse_length;
#X obj 92 179 send, f 10;
#X msg 309 122 symbol \$1_rcv;
#X symbolatom 309 146 10 0 0 0 - - -;
#X obj 341 63 loadbang;
#X obj 338 94 symbol \$1;
#X obj 82 58 sel \$2;
#X obj 75 26 inlet;
#X obj 136 29 r note;
#X connect 0 0 2 0;
#X connect 1 0 3 0;
#X connect 2 0 5 0;
#X connect 3 0 5 0;
#X connect 4 0 1 1;
#X connect 6 0 7 0;
#X connect 7 0 5 1;
#X connect 8 0 9 0;
#X connect 9 0 6 0;
#X connect 10 0 0 0;
#X connect 10 0 1 0;
#X connect 11 0 10 0;
#X connect 12 0 10 0;
