#N canvas 0 23 450 300 12;
#X obj 136 40 keyup;
#X obj 85 36 key;
#X msg 87 97 1;
#X obj 117 131 tgl 15 0 empty empty empty 17 7 0 10 -262144 -1 -1 0
1;
#X msg 152 94 0;
#X obj 123 175 outlet;
#X obj 87 75 sel \$1;
#X obj 152 71 sel \$1;
#X obj 121 152 change;
#X connect 0 0 7 0;
#X connect 1 0 6 0;
#X connect 2 0 3 0;
#X connect 3 0 8 0;
#X connect 4 0 3 0;
#X connect 6 0 2 0;
#X connect 7 0 4 0;
#X connect 8 0 5 0;
