#N canvas 138 23 1205 725 16;
#X obj 544 484 sel 1 0;
#X obj 547 452 tgl 15 0 empty empty test_led 17 7 0 10 -262144 -1 -1
0 1;
#X msg 544 507 18;
#X msg 580 507 19;
#X obj 571 554 s toComport;
#X obj 222 601 sel 1 0;
#X obj 225 569 tgl 15 0 empty empty back 17 7 0 10 -262144 -1 -1 0
1;
#X obj 249 671 s toComport;
#X msg 223 624 10;
#X msg 258 624 11;
#X obj 217 461 sel 1 0;
#X obj 210 421 tgl 15 0 empty empty forth 17 7 0 10 -262144 -1 -1 0
1;
#X obj 204 531 s toComport;
#X msg 212 485 12;
#X msg 247 485 13;
#X obj 71 503 sel 1 0;
#X obj 74 471 tgl 15 0 empty empty right 17 7 0 10 -262144 -1 -1 0
1;
#X obj 98 573 s toComport;
#X msg 72 526 14;
#X msg 107 526 15;
#X obj 329 506 sel 1 0;
#X obj 332 474 tgl 15 0 empty empty left 17 7 0 10 -262144 -1 -1 0
1;
#X obj 356 576 s toComport;
#X msg 330 529 16;
#X msg 365 529 17;
#X obj 515 82 env~ 128;
#X obj 263 83 fiddle~;
#X floatatom 262 117 5 0 0 0 - - -;
#X floatatom 515 105 5 0 0 0 - - -;
#X obj 520 191 tgl 15 0 empty empty empty 17 7 0 10 -262144 -1 -1 0
1;
#X obj 354 174 spigot;
#X obj 439 214 > 60;
#X obj 361 212 < 50;
#X msg 306 348 12;
#X obj 361 409 s toComport;
#X obj 320 286 tgl 15 0 empty empty empty 17 7 0 10 -262144 -1 -1 0
1;
#X msg 360 348 13;
#X obj 520 211 sel 0;
#X obj 448 309 tgl 15 0 empty empty empty 17 7 0 10 -262144 -1 -1 0
1;
#X msg 448 352 10;
#X msg 498 351 11;
#X obj 310 311 sel 1 0;
#X obj 450 326 sel 1 0;
#X obj 518 169 change;
#X obj 345 239 change;
#X obj 436 253 change;
#X obj 247 18 adc~ 2;
#X msg 534 253 0;
#X obj 274 162 i;
#X floatatom 274 185 5 0 0 0 - - -;
#X obj 637 231 sel 0;
#X msg 637 254 17;
#X msg 673 261 13;
#X msg 708 259 15;
#X msg 743 257 11;
#X obj 637 314 s toComport;
#X msg 32 350 12;
#X obj 41 396 s toComport;
#X obj 516 147 > 40;
#X obj 638 74 vsl 15 128 0 127 0 0 empty empty empty 0 -9 0 10 -262144
-1 -1 2733 1;
#X obj 242 227 + 1;
#X obj 51 298 sel 58 60 62 65 67 70;
#X msg 190 354 10;
#X msg 81 349 14;
#X msg 127 351 16;
#X connect 0 0 2 0;
#X connect 0 1 3 0;
#X connect 1 0 0 0;
#X connect 2 0 4 0;
#X connect 3 0 4 0;
#X connect 5 0 8 0;
#X connect 5 1 9 0;
#X connect 6 0 5 0;
#X connect 8 0 7 0;
#X connect 9 0 7 0;
#X connect 10 0 13 0;
#X connect 10 1 14 0;
#X connect 11 0 10 0;
#X connect 13 0 12 0;
#X connect 14 0 12 0;
#X connect 15 0 18 0;
#X connect 15 1 19 0;
#X connect 16 0 15 0;
#X connect 18 0 17 0;
#X connect 19 0 17 0;
#X connect 20 0 23 0;
#X connect 20 1 24 0;
#X connect 21 0 20 0;
#X connect 23 0 22 0;
#X connect 24 0 22 0;
#X connect 25 0 28 0;
#X connect 26 0 27 0;
#X connect 27 0 48 0;
#X connect 28 0 58 0;
#X connect 28 0 59 0;
#X connect 29 0 30 1;
#X connect 29 0 37 0;
#X connect 29 0 50 0;
#X connect 30 0 31 0;
#X connect 30 0 32 0;
#X connect 31 0 45 0;
#X connect 32 0 44 0;
#X connect 33 0 34 0;
#X connect 35 0 41 0;
#X connect 36 0 34 0;
#X connect 37 0 47 0;
#X connect 38 0 42 0;
#X connect 39 0 34 0;
#X connect 40 0 34 0;
#X connect 41 0 33 0;
#X connect 41 1 36 0;
#X connect 42 0 39 0;
#X connect 42 1 40 0;
#X connect 43 0 29 0;
#X connect 44 0 35 0;
#X connect 45 0 38 0;
#X connect 46 0 26 0;
#X connect 46 0 25 0;
#X connect 47 0 38 0;
#X connect 47 0 35 0;
#X connect 48 0 49 0;
#X connect 49 0 60 0;
#X connect 50 0 51 0;
#X connect 50 0 52 0;
#X connect 50 0 53 0;
#X connect 50 0 54 0;
#X connect 51 0 55 0;
#X connect 52 0 55 0;
#X connect 53 0 55 0;
#X connect 54 0 55 0;
#X connect 56 0 57 0;
#X connect 58 0 43 0;
#X connect 60 0 61 0;
#X connect 61 0 56 0;
#X connect 61 1 56 0;
#X connect 61 1 63 0;
#X connect 61 2 56 0;
#X connect 61 2 64 0;
#X connect 61 3 62 0;
#X connect 61 3 63 0;
#X connect 61 4 62 0;
#X connect 61 4 64 0;
#X connect 61 5 62 0;
#X connect 62 0 57 0;
#X connect 63 0 57 0;
#X connect 64 0 57 0;
