#N canvas -2021 167 1409 711 16;
#X obj 63 63 sel 1 0;
#X obj 63 36 tgl 15 0 empty empty test_led 17 7 0 10 -262144 -1 -1
0 1;
#X msg 63 99 18;
#X msg 96 91 19;
#X obj 63 135 s toComport;
#X obj 408 150 env~ 128;
#X obj 263 68 fiddle~;
#X floatatom 263 104 5 0 0 0 - - -;
#X floatatom 408 150 5 0 0 0 - - -;
#X obj 387 263 tgl 15 0 empty empty empty 17 7 0 10 -262144 -1 -1 0
1;
#X obj 408 221 change;
#X obj 263 139 i;
#X floatatom 263 175 5 0 0 0 - - -;
#X obj 342 282 sel 0;
#X msg 342 318 17;
#X msg 375 320 13;
#X msg 410 320 15;
#X msg 445 320 11;
#X obj 342 354 s toComport;
#X msg 29 372 12;
#X obj 102 453 s toComport;
#X obj 408 185 > 40;
#X obj 242 227 + 1;
#X obj 48 320 sel 58 60 62 65 67 70;
#X msg 187 372 10;
#X msg 78 372 14;
#X msg 124 372 16;
#X obj 413 18 hsl 420 60 0 127 0 0 empty direction_gui FORWARD_RIGHT
-2 40 0 50 -258113 -258113 -262144 0 1;
#N canvas 227 375 696 474 gui 0;
#X msg 155 406 label \$1;
#X obj 155 430 s direction_gui;
#X msg 69 170 FORWARD_RIGHT;
#X msg 227 168 FORWARD_LEFT;
#X obj 207 363 symbol;
#X msg 380 166 FORWARD;
#X msg 259 314 BACKWARD;
#X msg 359 316 BACKWARD_LEFT;
#X msg 508 317 BACKWARD_RIGHT;
#X msg 39 288 nothing;
#X obj 406 117 sel 1;
#X obj 383 77 r forward;
#X obj 234 124 sel 1;
#X obj 65 128 sel 1;
#X obj 42 88 r forward_right;
#X obj 211 85 r forward_left;
#X obj 258 256 sel 1;
#X obj 235 217 r backward;
#X obj 365 261 sel 1;
#X obj 342 222 r backward_left;
#X obj 539 256 sel 1;
#X obj 516 217 r backward_right;
#X connect 0 0 1 0;
#X connect 2 0 4 0;
#X connect 3 0 4 0;
#X connect 4 0 0 0;
#X connect 5 0 4 0;
#X connect 6 0 4 0;
#X connect 7 0 4 0;
#X connect 8 0 4 0;
#X connect 9 0 4 0;
#X connect 10 0 5 0;
#X connect 11 0 10 0;
#X connect 12 0 3 0;
#X connect 13 0 2 0;
#X connect 14 0 13 0;
#X connect 15 0 12 0;
#X connect 16 0 6 0;
#X connect 17 0 16 0;
#X connect 18 0 7 0;
#X connect 19 0 18 0;
#X connect 20 0 8 0;
#X connect 21 0 20 0;
#X restore 274 347 pd gui;
#X obj 351 38 vu 15 120 input_meter input -1 -8 0 10 -66577 -1 1 0
;
#X obj 518 152 vsl 15 128 0 127 0 0 empty empty empty 0 -9 0 10 -262144
-1 -1 0 1;
#X obj 539 187 vsl 15 128 0 127 0 1 empty empty go_threshold 0 -9 0
10 -262144 -1 -1 2300 1;
#X floatatom 539 330 5 0 0 0 - - -;
#X floatatom 844 215 5 0 0 0 - - -;
#X obj 844 250 i;
#X obj 614 395 tgl 40 0 forward forward_rcv forward 17 7 0 16 -262144
-1 -1 0 1;
#X msg 426 688 12;
#X obj 454 732 s toComport;
#X obj 429 610 r forward;
#X obj 426 640 sel 1 0;
#X msg 479 687 13;
#X obj 454 1012 s toComport;
#X obj 426 920 sel 1 0;
#X msg 426 968 10;
#X msg 479 967 11;
#X obj 614 457 tgl 40 0 reverse reverse_rcv reverse 17 7 0 16 -262144
-1 -1 0 1;
#X obj 429 890 r reverse;
#X obj 721 396 tgl 40 0 forward_right forward_right_rcv forward_right
17 7 0 16 -262144 -1 -1 0 1;
#X msg 581 687 12;
#X obj 609 731 s toComport;
#X obj 581 639 sel 1 0;
#X msg 701 687 13;
#X msg 625 691 16;
#X msg 753 688 17;
#X obj 584 609 r forward_right;
#X obj 449 402 tgl 40 0 forward_left forward_left_rcv forward_left
17 7 0 16 -262144 -1 -1 0 1;
#X msg 185 682 12;
#X obj 213 726 s toComport;
#X obj 185 634 sel 1 0;
#X msg 305 682 13;
#X msg 229 686 14;
#X msg 357 683 15;
#X obj 608 1005 s toComport;
#X obj 580 913 sel 1 0;
#X msg 624 965 16;
#X msg 752 962 17;
#X obj 212 1000 s toComport;
#X obj 184 908 sel 1 0;
#X msg 228 960 14;
#X msg 356 957 15;
#X obj 188 604 r forward_left;
#X obj 190 879 r reverse_left;
#X msg 184 956 10;
#X msg 580 961 10;
#X msg 304 956 11;
#X msg 700 961 11;
#X obj 583 883 r reverse_right;
#X obj 727 454 tgl 40 0 reverse_right reverse_right_rcv reverse_right
17 7 0 16 -262144 -1 -1 0 1;
#X obj 459 452 tgl 40 0 reverse_left reverse_left_rcv reverse_left
17 7 0 16 -262144 -1 -1 0 1;
#X obj 792 117 adc~ 2;
#X obj 1073 85 nbx 5 25 50 2000 0 1 pulse_length pulse_length_rcv pulse_length
0 -8 0 16 -262144 -1 -1 139 256;
#X obj 792 297 s note;
#X obj 844 179 sigmund~ pitch;
#X obj 1011 353 direction_pulse forward_left 44;
#X obj 1019 387 direction_pulse forward_right 49;
#X obj 1005 452 direction_pulse reverse 54;
#X obj 1011 493 direction_pulse reverse_left 58;
#X obj 1019 527 direction_pulse reverse_right 63;
#X obj 1001 320 direction_pulse forward 57;
#X connect 0 0 2 0;
#X connect 0 1 3 0;
#X connect 1 0 0 0;
#X connect 2 0 4 0;
#X connect 3 0 4 0;
#X connect 5 0 8 0;
#X connect 6 0 7 0;
#X connect 7 0 11 0;
#X connect 8 0 21 0;
#X connect 8 0 30 0;
#X connect 9 0 13 0;
#X connect 10 0 9 0;
#X connect 11 0 12 0;
#X connect 12 0 22 0;
#X connect 13 0 14 0;
#X connect 13 0 15 0;
#X connect 13 0 16 0;
#X connect 13 0 17 0;
#X connect 14 0 18 0;
#X connect 15 0 18 0;
#X connect 16 0 18 0;
#X connect 17 0 18 0;
#X connect 19 0 20 0;
#X connect 21 0 10 0;
#X connect 22 0 23 0;
#X connect 23 0 19 0;
#X connect 23 1 19 0;
#X connect 23 1 25 0;
#X connect 23 2 19 0;
#X connect 23 2 26 0;
#X connect 23 3 24 0;
#X connect 23 3 25 0;
#X connect 23 4 24 0;
#X connect 23 4 26 0;
#X connect 23 5 24 0;
#X connect 24 0 20 0;
#X connect 25 0 20 0;
#X connect 26 0 20 0;
#X connect 31 0 32 0;
#X connect 32 0 21 1;
#X connect 33 0 34 0;
#X connect 34 0 81 0;
#X connect 36 0 37 0;
#X connect 38 0 39 0;
#X connect 39 0 36 0;
#X connect 39 1 40 0;
#X connect 40 0 37 0;
#X connect 42 0 43 0;
#X connect 42 1 44 0;
#X connect 43 0 41 0;
#X connect 44 0 41 0;
#X connect 46 0 42 0;
#X connect 48 0 49 0;
#X connect 50 0 48 0;
#X connect 50 0 52 0;
#X connect 50 1 51 0;
#X connect 50 1 53 0;
#X connect 51 0 49 0;
#X connect 52 0 49 0;
#X connect 53 0 49 0;
#X connect 54 0 50 0;
#X connect 56 0 57 0;
#X connect 58 0 56 0;
#X connect 58 0 60 0;
#X connect 58 1 59 0;
#X connect 58 1 61 0;
#X connect 59 0 57 0;
#X connect 60 0 57 0;
#X connect 61 0 57 0;
#X connect 63 0 73 0;
#X connect 63 0 64 0;
#X connect 63 1 75 0;
#X connect 63 1 65 0;
#X connect 64 0 62 0;
#X connect 65 0 62 0;
#X connect 67 0 72 0;
#X connect 67 0 68 0;
#X connect 67 1 74 0;
#X connect 67 1 69 0;
#X connect 68 0 66 0;
#X connect 69 0 66 0;
#X connect 70 0 58 0;
#X connect 71 0 67 0;
#X connect 72 0 66 0;
#X connect 73 0 62 0;
#X connect 74 0 66 0;
#X connect 75 0 62 0;
#X connect 76 0 63 0;
#X connect 79 0 82 0;
#X connect 82 0 33 0;
