#N canvas 0 23 1205 725 12;
#X obj 544 484 sel 1 0;
#X obj 547 452 tgl 15 0 empty empty test_led 17 7 0 10 -262144 -1 -1
0 1;
#X msg 544 507 18;
#X msg 580 507 19;
#X obj 571 554 s toComport;
#X obj 222 601 sel 1 0;
#X obj 225 569 tgl 15 0 empty empty back 17 7 0 10 -262144 -1 -1 0
1;
#X obj 249 671 s toComport;
#X msg 223 624 10;
#X msg 258 624 11;
#X obj 211 462 sel 1 0;
#X obj 210 421 tgl 15 0 empty empty forth 17 7 0 10 -262144 -1 -1 0
1;
#X obj 238 532 s toComport;
#X msg 212 485 12;
#X msg 247 485 13;
#X obj 71 503 sel 1 0;
#X obj 74 471 tgl 15 0 empty empty right 17 7 0 10 -262144 -1 -1 0
1;
#X obj 98 573 s toComport;
#X msg 72 526 14;
#X msg 107 526 15;
#X obj 329 506 sel 1 0;
#X obj 332 474 tgl 15 0 empty empty left 17 7 0 10 -262144 -1 -1 0
1;
#X obj 356 576 s toComport;
#X msg 330 529 16;
#X msg 365 529 17;
#X obj 515 82 env~ 128;
#X floatatom 515 105 5 0 0 0 - - -;
#X obj 520 191 tgl 15 0 empty empty empty 17 7 0 10 -262144 -1 -1 0
1;
#X obj 354 174 spigot;
#X obj 439 214 > 60;
#X obj 361 212 < 50;
#X msg 306 348 12;
#X obj 361 409 s toComport;
#X obj 320 286 tgl 15 0 empty empty empty 17 7 0 10 -262144 -1 -1 0
1;
#X msg 338 347 13;
#X obj 520 211 sel 0;
#X obj 448 309 tgl 15 0 empty empty empty 17 7 0 10 -262144 -1 -1 0
1;
#X msg 448 352 10;
#X msg 498 351 11;
#X obj 310 311 sel 1 0;
#X obj 450 326 sel 1 0;
#X obj 518 169 change;
#X obj 345 239 change;
#X obj 436 253 change;
#X obj 506 32 adc~ 2;
#X msg 534 253 0;
#X obj 153 290 sel 57 60 62 64;
#X obj 141 96 sel 0;
#X msg 141 119 17;
#X msg 177 126 13;
#X msg 212 124 15;
#X msg 247 122 11;
#X obj 141 179 s toComport;
#X msg 122 338 12;
#X msg 227 338 10;
#X msg 164 338 16;
#X msg 196 338 14;
#X obj 131 384 s toComport;
#X obj 638 74 vsl 15 128 0 127 0 0 empty empty empty 0 -9 0 10 -262144
-1 -1 4544 1;
#X obj 517 139 > 70;
#X obj 589 169 spigot;
#X floatatom 589 192 5 0 0 0 - - -;
#X obj 589 214 - 70;
#X obj 589 237 i;
#X floatatom 589 260 5 0 0 0 - - -;
#X obj 666 335 bng 15 250 50 0 empty empty empty 17 7 0 10 -262144
-1 -1;
#X obj 667 278 metro 100;
#X floatatom 755 240 5 0 0 0 - - -;
#X obj 723 499 > 0;
#X obj 687 460 s toComport;
#X msg 661 413 12;
#X msg 696 413 13;
#X obj 680 234 tgl 15 0 empty empty empty 17 7 0 10 -262144 -1 -1 0
1;
#X obj 707 374 delay 100;
#X floatatom 790 189 5 0 0 0 - - -;
#X obj 786 144 expr 30-$f1;
#X obj 755 220 + 100;
#X obj 931 423 line;
#X msg 976 367 1;
#X obj 931 469 change;
#X obj 933 509 tgl 15 0 empty empty empty 17 7 0 10 -262144 -1 -1 0
1;
#X obj 929 305 t b b;
#X obj 928 262 bng 15 250 50 0 empty empty empty 17 7 0 10 -262144
-1 -1;
#X obj 931 446 > 0;
#X obj 920 589 sel 1 0;
#X obj 919 548 tgl 15 0 empty empty forth 17 7 0 10 -262144 -1 -1 0
1;
#X obj 947 659 s toComport;
#X msg 921 612 12;
#X msg 956 612 13;
#X obj 848 204 * 10;
#X obj 900 239 metro;
#X obj 896 187 tgl 15 0 empty empty empty 17 7 0 10 -262144 -1 -1 0
1;
#X floatatom 999 167 5 0 0 0 - - -;
#X msg 924 371 0 80;
#X connect 0 0 2 0;
#X connect 0 1 3 0;
#X connect 1 0 0 0;
#X connect 2 0 4 0;
#X connect 3 0 4 0;
#X connect 5 0 8 0;
#X connect 5 1 9 0;
#X connect 6 0 5 0;
#X connect 8 0 7 0;
#X connect 9 0 7 0;
#X connect 10 0 13 0;
#X connect 10 1 14 0;
#X connect 11 0 10 0;
#X connect 13 0 12 0;
#X connect 14 0 12 0;
#X connect 15 0 18 0;
#X connect 15 1 19 0;
#X connect 16 0 15 0;
#X connect 18 0 17 0;
#X connect 19 0 17 0;
#X connect 20 0 23 0;
#X connect 20 1 24 0;
#X connect 21 0 20 0;
#X connect 23 0 22 0;
#X connect 24 0 22 0;
#X connect 25 0 26 0;
#X connect 26 0 58 0;
#X connect 26 0 59 0;
#X connect 26 0 60 0;
#X connect 27 0 28 1;
#X connect 27 0 35 0;
#X connect 27 0 47 0;
#X connect 27 0 66 0;
#X connect 27 0 90 0;
#X connect 28 0 29 0;
#X connect 28 0 30 0;
#X connect 29 0 43 0;
#X connect 30 0 42 0;
#X connect 31 0 32 0;
#X connect 33 0 39 0;
#X connect 34 0 32 0;
#X connect 35 0 45 0;
#X connect 36 0 40 0;
#X connect 37 0 32 0;
#X connect 38 0 32 0;
#X connect 39 0 31 0;
#X connect 39 1 34 0;
#X connect 40 0 37 0;
#X connect 40 1 38 0;
#X connect 41 0 27 0;
#X connect 41 0 60 1;
#X connect 42 0 33 0;
#X connect 43 0 36 0;
#X connect 44 0 25 0;
#X connect 45 0 36 0;
#X connect 45 0 33 0;
#X connect 46 0 53 0;
#X connect 46 1 55 0;
#X connect 46 2 56 0;
#X connect 46 3 54 0;
#X connect 47 0 48 0;
#X connect 47 0 49 0;
#X connect 47 0 50 0;
#X connect 47 0 51 0;
#X connect 48 0 52 0;
#X connect 49 0 52 0;
#X connect 50 0 52 0;
#X connect 51 0 52 0;
#X connect 53 0 57 0;
#X connect 54 0 57 0;
#X connect 55 0 57 0;
#X connect 56 0 57 0;
#X connect 59 0 41 0;
#X connect 60 0 61 0;
#X connect 61 0 62 0;
#X connect 62 0 63 0;
#X connect 63 0 64 0;
#X connect 64 0 75 0;
#X connect 65 0 70 0;
#X connect 65 0 73 0;
#X connect 67 0 66 1;
#X connect 70 0 69 0;
#X connect 71 0 69 0;
#X connect 72 0 66 0;
#X connect 73 0 71 0;
#X connect 74 0 89 0;
#X connect 75 0 74 0;
#X connect 76 0 67 0;
#X connect 77 0 83 0;
#X connect 78 0 77 0;
#X connect 79 0 80 0;
#X connect 80 0 85 0;
#X connect 81 0 93 0;
#X connect 81 1 78 0;
#X connect 82 0 81 0;
#X connect 83 0 79 0;
#X connect 84 0 87 0;
#X connect 84 1 88 0;
#X connect 85 0 84 0;
#X connect 87 0 86 0;
#X connect 88 0 86 0;
#X connect 89 0 90 1;
#X connect 90 0 82 0;
#X connect 91 0 90 0;
#X connect 92 0 90 1;
#X connect 93 0 77 0;
