#N canvas 53 234 1205 725 12;
#X obj 515 82 env~ 128;
#X floatatom 515 105 5 0 0 0 - - -;
#X obj 520 191 tgl 15 0 empty empty empty 17 7 0 10 -262144 -1 -1 1
1;
#X obj 354 174 spigot;
#X obj 439 214 > 60;
#X obj 361 212 < 50;
#X msg 306 348 12;
#X obj 361 409 s toComport;
#X obj 320 286 tgl 15 0 empty empty empty 17 7 0 10 -262144 -1 -1 0
1;
#X msg 338 347 13;
#X obj 520 211 sel 0;
#X obj 448 309 tgl 15 0 empty empty empty 17 7 0 10 -262144 -1 -1 0
1;
#X msg 448 352 10;
#X msg 498 351 11;
#X obj 310 311 sel 1 0;
#X obj 450 326 sel 1 0;
#X obj 518 169 change;
#X obj 345 239 change;
#X obj 436 253 change;
#X obj 506 32 adc~ 2;
#X msg 534 253 0;
#X obj 638 74 vsl 15 128 0 127 0 0 empty empty empty 0 -9 0 10 -262144
-1 -1 7351 1;
#X obj 517 139 > 70;
#X obj 589 169 spigot;
#X floatatom 589 192 5 0 0 0 - - -;
#X obj 589 214 - 70;
#X obj 589 237 i;
#X floatatom 589 260 5 0 0 0 - - -;
#X obj 667 278 metro 100;
#X floatatom 755 240 5 0 0 0 - - -;
#X obj 680 234 tgl 15 0 empty empty empty 17 7 0 10 -262144 -1 -1 0
1;
#X floatatom 790 189 5 0 0 0 - - -;
#X obj 786 144 expr 30-$f1;
#X obj 755 220 + 100;
#X obj 931 423 line;
#X msg 976 367 1;
#X obj 931 469 change;
#X obj 933 509 tgl 15 0 empty empty empty 17 7 0 10 -262144 -1 -1 1
1;
#X obj 929 305 t b b;
#X obj 928 262 bng 15 250 50 0 empty empty empty 17 7 0 10 -262144
-1 -1;
#X obj 931 446 > 0;
#X obj 920 589 sel 1 0;
#X obj 919 548 tgl 15 0 empty empty forth 17 7 0 10 -262144 -1 -1 1
1;
#X obj 947 659 s toComport;
#X msg 921 612 12;
#X msg 956 612 13;
#X obj 848 204 * 10;
#X obj 900 239 metro;
#X obj 896 187 tgl 15 0 empty empty empty 17 7 0 10 -262144 -1 -1 0
1;
#X floatatom 999 167 5 0 0 0 - - -;
#X msg 924 371 0 80;
#X obj 663 67 vsl 15 128 0 127 0 1 empty empty go_threshold 0 -9 0
10 -262144 -1 -1 5100 1;
#X floatatom 663 203 5 0 0 0 - - -;
#X obj 54 63 vu 15 120 input_meter input -1 -8 0 10 -66577 -1 1 0;
#X connect 0 0 1 0;
#X connect 1 0 21 0;
#X connect 1 0 22 0;
#X connect 1 0 23 0;
#X connect 2 0 3 1;
#X connect 2 0 10 0;
#X connect 2 0 28 0;
#X connect 2 0 47 0;
#X connect 3 0 4 0;
#X connect 3 0 5 0;
#X connect 4 0 18 0;
#X connect 5 0 17 0;
#X connect 6 0 7 0;
#X connect 8 0 14 0;
#X connect 9 0 7 0;
#X connect 10 0 20 0;
#X connect 11 0 15 0;
#X connect 12 0 7 0;
#X connect 13 0 7 0;
#X connect 14 0 6 0;
#X connect 14 1 9 0;
#X connect 15 0 12 0;
#X connect 15 1 13 0;
#X connect 16 0 2 0;
#X connect 16 0 23 1;
#X connect 17 0 8 0;
#X connect 18 0 11 0;
#X connect 19 0 0 0;
#X connect 20 0 11 0;
#X connect 20 0 8 0;
#X connect 22 0 16 0;
#X connect 23 0 24 0;
#X connect 24 0 25 0;
#X connect 25 0 26 0;
#X connect 26 0 27 0;
#X connect 27 0 32 0;
#X connect 29 0 28 1;
#X connect 30 0 28 0;
#X connect 31 0 46 0;
#X connect 32 0 31 0;
#X connect 33 0 29 0;
#X connect 34 0 40 0;
#X connect 35 0 34 0;
#X connect 36 0 37 0;
#X connect 37 0 42 0;
#X connect 38 0 50 0;
#X connect 38 1 35 0;
#X connect 39 0 38 0;
#X connect 40 0 36 0;
#X connect 41 0 44 0;
#X connect 41 1 45 0;
#X connect 42 0 41 0;
#X connect 44 0 43 0;
#X connect 45 0 43 0;
#X connect 46 0 47 1;
#X connect 47 0 39 0;
#X connect 48 0 47 0;
#X connect 49 0 47 1;
#X connect 50 0 34 0;
#X connect 51 0 52 0;
#X connect 52 0 22 1;
#X connect 52 0 25 1;
